<?xml version="1.0" encoding="UTF-8"?><svg id="Layer_2" xmlns="http://www.w3.org/2000/svg" width="1447.6" height="339.66" viewBox="0 0 1447.6 339.66"><path d="M359.93,223.69c-1.21-6.1-1.7-3.33-7.14-20.26-2.17-6.74-3.38-11.18-7.14-17.46-3.44-5.75-6.58-9-10.16-11.7-1.72-1.3-5.12-3.83-10.71-6.11-6.65-2.72-12.57-3.54-20.85-4.68-7.12-.98-12.56-1.24-18.36-1.53-7.43-.36-12.31-.6-18.22-.18-3.37.24-6.75.46-10.11.71-1.93.15-3.88.18-5.81.36-1.47.14-3.14.33-5.34.12-1.37-.13-2.18-.21-2.25-.42-.23-.69,7.92-2.38,24.16-5.55,7.2-1.4,14.63-2.83,24.16-4.91,11.34-2.47,13.38-3.19,15.44-4.27,7.26-3.78,9.42-9.18,10.6-12.28,1.07-2.82,1.03-6.35-2.97-24.34-2.13-9.57-4.36-14.37-5.28-16.26-3.12-6.38-5.48-11.23-11.72-16.26-5-4.03-10.15-6.22-20.46-10.6-5.39-2.29-12.59-5.35-22.94-8.08-8.7-2.29-15.84-3.38-29.05-5.35-9.31-1.39-11.09-1.7-16.46-2.31H57.89l-1.91,243.91h284.02c.31-.17.75-.43,1.27-.74,0,0,5.77-3.48,9.74-8,3.84-4.38,4.73-10.02,5.88-17.93,1.51-10.34,2.26-15.51,2.43-17.41,1.31-14.42,1.97-21.63.61-28.5ZM189.63,253.29h-51.07v-33.96h51.07v33.96ZM189.63,136.67h-51.07v-33.96h51.07v33.96Z"/><path d="M590.3,150.31h-238.75v45.03h138.14l-2.45-.02c1.51,0,3.68.02,4.83.09,5.69.36,6.34.6,7.12.77.61.13,3.61.77,5.44,2.52.62.6,1.25,1.45,1.15,6.58-.08,4.36-.57,5.99-1.65,7.56-.88,1.28-1.83,2.05-3.13,2.41-1.71.48-3.44.1-3.96,0-.13-.03-6.13-.02-18.13,0-10.44.01-26,2.48-36.6,4.17-17.28,2.74-29.71,4.71-45.33,9.32-7.01,2.07-11.32,3.68-19.95,6.91-1.98.74-9.36,3.53-17.31,8.11-3.09,1.78-5.93,3.63-7.09,6.47-.64,1.56-.17,2.55-.33,5.15-.02.27-.36,6.24-.49,9.21-.56,12.4-.2,14.21.82,16.33,2.45,5.09,7.12,8.69,9.4,10.41,2.89,2.19,10.39,3.78,12.8,4.85h216.2l-.73-145.86ZM496.83,265.01h-51.07v-23.91h51.07v23.91Z"/><path d="M374.64,296.17l.39.08c-.06-.03-.13-.06-.19-.08h-.19Z"/><path d="M631.42,229.48c-.08-.03-.16-.05-.24-.08h0l.24.08Z"/><path d="M683.75,190.03c6.17-1.77,10.56-1.51,21.79-1.71h123.41v-36.94h-161.03v.05c-4.59-.1-10.73-.09-15.94.55-2.27.27-9.52,1.23-18.24,3.89-11.24,3.44-18.26,7.69-23.37,10.83-7.55,4.65-15.17,9.34-18.4,16.62-.88,1.99-1.39,4.07-1.66,5.15-.84,3.41-1.87,7.66-.66,12.83.44,1.9,1.46,5.99,5.47,10.52,3.97,4.49,8.84,7.11,12.1,8.83,5.25,2.78,11.52,4.78,23.96,8.76,4.9,1.28,13.74,3.51,21.5,5.33,9.35,2.2,14.03,3.29,20.43,4.5,12.1,2.27,13.39,1.77,22.93,3.97,5.32,1.23,10.37,2.64,14.18,3.7,7.46,2.09,9.51,2.42,12.51,3.7,5.45,2.33,8.27,4.77,9.35,5.78.88.83,1.56,1.59,2.08,2.29h-144.62v37.58h239.41v-37.58h-.59c-1.13-8.11-4-20.9-9.77-25.19-3.49-2.59-7.11-3.97-13.66-6.42-12.54-4.68-23.26-6.84-25.56-7.29-9.48-1.87-20.26-2.63-41.42-4.08,0,0-13.97-.96-38.77-3.79-5.63-.64-12.36-1.47-18.51-4.96-3.02-1.72-10.02-5.15-9.25-9.33.78-4.27,9.06-6.65,12.34-7.58Z"/><path d="M1024.97,236.66v-36.28h-55.82v-49.53h-93.52v49.53h-55.82v36.28h55.82v59.6h93.52v-.41h55.42l.4-20.1v-.17c-2.37.03-9.87-.87-13.34-.98-1.23-.04-3.19-.36-9.72-.97-5.65-.53-9.22-.86-13.95-1.82-4.61-.93-6.97-1.43-9.53-2.82-3.02-1.64-4.62-3.58-5.94-5.18-.77-.93-2.1-2.7-3.04-5.09-.11-.29-.21-.56-.29-.82v-21.24h55.82Z"/><path d="M1192.24,150.51c-7.88.26-16.48.55-27.16,2.26-12.28,1.97-20.88,4.79-25.24,6.24-3.74,1.25-9.78,3.28-16.64,6.78-5.23,2.66-10.39,6.86-13.52,9.34v-24h-88.29v145.13h88.29v-67.04c2.5-2.02,5.86-4.52,10.19-7.21,1.57-.98,8.35-5.13,19.66-9.92,4.33-1.84,15.33-6.32,31.26-10.49,9.66-2.53,22.91-5.42,39.32-7.37v-43.62l.62-.17c-3.77-.07-12.35-.14-18.5.07Z"/><path d="M1277.31,150.85h.03s.03,0,.04,0h-.07Z"/><path d="M1387.12,205.87c-1.72-7.63-3.34-14.84-9.55-23.42-3.31-4.57-8.06-10.99-18.41-17.22-9.19-5.54-18.9-8.6-23.64-10.06,0,0-6.55-2.21-13.41-3.44-2.22-.4-4.33-.62-4.33-.62-1.43-.15-3.83-.21-4.72-.25h-35.71c-.92.04-3.17.1-4.58.25,0,0-2.11.22-4.33.62-6.86,1.23-13.41,3.44-13.41,3.44-4.74,1.46-14.45,4.52-23.64,10.06-10.35,6.24-15.11,12.65-18.41,17.22-6.21,8.58-7.83,15.79-9.55,23.42-1.69,7.51-1.82,13.35-1.82,15.71-.01,13.54,3.99,23.49,5,25.91,2.64,6.31,5.75,11.06,7.73,14.06,4.52,6.83,8.84,11.62,10.46,13.37,6.79,7.34,10.33,11.07,17.26,14.07,5.04,2.18,10.18,3.34,14.43,4.31,6.75,1.53,16.68,2.6,20.94,2.98h35.57c4.26-.38,14.31-1.45,21.07-2.98,4.25-.96,9.39-2.13,14.43-4.31,6.93-3,10.47-6.73,17.26-14.07,1.62-1.75,5.94-6.53,10.46-13.37,1.98-3,5.09-7.75,7.73-14.06,1.01-2.41,5.01-12.37,5-25.91,0-2.36-.13-8.2-1.82-15.71ZM1324.6,237.99h-51.07v-33.96h51.07v33.96Z"/></svg>